<svg width="28" height="28" viewBox="0 0 28 28" fill="none" xmlns="http://www.w3.org/2000/svg">
<path d="M4.08952 5.20236L10.4994 23.7199C10.5598 23.8943 10.6737 24.0451 10.825 24.1509C10.9762 24.2566 11.157 24.3118 11.3415 24.3086C11.526 24.3054 11.7048 24.2439 11.8522 24.133C11.9997 24.0221 12.1083 23.8674 12.1626 23.691L14.739 15.3177C14.781 15.1813 14.8557 15.0573 14.9566 14.9564C15.0575 14.8554 15.1816 14.7807 15.318 14.7388L23.6913 12.1624C23.8676 12.1081 24.0223 11.9995 24.1332 11.852C24.2442 11.7045 24.3056 11.5258 24.3088 11.3413C24.312 11.1568 24.2568 10.976 24.1511 10.8247C24.0454 10.6735 23.8945 10.5596 23.7202 10.4992L5.2026 4.08928C5.04743 4.03557 4.88027 4.0266 4.72025 4.06341C4.56022 4.10022 4.41378 4.18131 4.29766 4.29742C4.18155 4.41354 4.10046 4.55998 4.06365 4.72001C4.02684 4.88003 4.03581 5.04719 4.08952 5.20236V5.20236Z" stroke="white" stroke-width="2" stroke-linecap="round" stroke-linejoin="round"/>
</svg>
