<svg width="40" height="40" viewBox="0 0 40 40" fill="none" xmlns="http://www.w3.org/2000/svg">
<path d="M8.78171 17.5C8.77759 16.0241 9.06474 14.5619 9.62669 13.1971C10.1886 11.8324 11.0144 10.5919 12.0566 9.54679C13.0987 8.5017 14.3369 7.67251 15.7001 7.10675C17.0633 6.54098 18.5247 6.24976 20.0006 6.24976C21.4765 6.24976 22.938 6.54098 24.3011 7.10675C25.6643 7.67251 26.9025 8.5017 27.9447 9.54679C28.9868 10.5919 29.8126 11.8324 30.3745 13.1971C30.9365 14.5619 31.2236 16.0241 31.2195 17.5V17.5C31.2195 23.0962 32.3903 26.3436 33.4215 28.1185C33.5326 28.3081 33.5917 28.5237 33.5929 28.7435C33.5941 28.9633 33.5373 29.1795 33.4282 29.3703C33.3192 29.5611 33.1617 29.7198 32.9718 29.8304C32.7818 29.941 32.5661 29.9995 32.3463 30H7.65368C7.43387 29.9995 7.2181 29.9409 7.02813 29.8303C6.83815 29.7198 6.68071 29.561 6.57167 29.3702C6.46263 29.1793 6.40585 28.9631 6.40706 28.7433C6.40828 28.5235 6.46744 28.3079 6.57858 28.1182C7.61034 26.3433 8.78171 23.0959 8.78171 17.5H8.78171Z" stroke="#2F80ED" stroke-width="2" stroke-linecap="round" stroke-linejoin="round"/>
<path d="M15 30V31.25C15 32.5761 15.5268 33.8479 16.4645 34.7855C17.4021 35.7232 18.6739 36.25 20 36.25C21.3261 36.25 22.5979 35.7232 23.5355 34.7855C24.4732 33.8479 25 32.5761 25 31.25V30" stroke="#2F80ED" stroke-width="2" stroke-linecap="round" stroke-linejoin="round"/>
<path d="M28.6613 3.74817C31.2048 5.35389 33.2552 7.63121 34.5861 10.3287" stroke="#2F80ED" stroke-width="2" stroke-linecap="round" stroke-linejoin="round"/>
<path d="M5.41394 10.3287C6.74481 7.63121 8.79518 5.35389 11.3387 3.74817" stroke="#2F80ED" stroke-width="2" stroke-linecap="round" stroke-linejoin="round"/>
</svg>
