<svg width="40" height="40" viewBox="0 0 40 40" fill="none" xmlns="http://www.w3.org/2000/svg">
<path d="M24.909 6.25C27.028 6.8199 28.9602 7.9366 30.5118 9.48823C32.0634 11.0399 33.1801 12.972 33.75 15.091" stroke="#2F80ED" stroke-width="2" stroke-linecap="round" stroke-linejoin="round"/>
<path d="M23.6146 11.0808C24.886 11.4228 26.0453 12.0928 26.9762 13.0238C27.9072 13.9547 28.5772 15.114 28.9192 16.3854" stroke="#2F80ED" stroke-width="2" stroke-linecap="round" stroke-linejoin="round"/>
<path d="M14.4494 19.5024C15.746 22.1532 17.8948 24.2922 20.5515 25.5767C20.7459 25.6688 20.9609 25.7087 21.1754 25.6925C21.3899 25.6763 21.5964 25.6045 21.7747 25.4842L25.6866 22.8757C25.8596 22.7603 26.0586 22.6899 26.2657 22.6709C26.4728 22.6519 26.6813 22.6848 26.8724 22.7667L34.1907 25.9031C34.4393 26.0087 34.6469 26.1923 34.7821 26.4261C34.9173 26.6599 34.9729 26.9314 34.9405 27.1995C34.7092 29.0095 33.826 30.6731 32.4564 31.8789C31.0869 33.0847 29.3247 33.7499 27.5 33.75C21.8641 33.75 16.4591 31.5111 12.474 27.526C8.48883 23.5408 6.25 18.1358 6.25 12.5C6.2501 10.6752 6.9153 8.91311 8.12106 7.54353C9.32683 6.17394 10.9905 5.29081 12.8005 5.0595C13.0686 5.02705 13.34 5.08262 13.5739 5.21785C13.8077 5.35307 13.9912 5.56062 14.0968 5.80922L17.236 13.1339C17.3172 13.3234 17.3502 13.5299 17.3323 13.7353C17.3143 13.9406 17.2458 14.1383 17.1329 14.3108L14.5335 18.2826C14.4152 18.4613 14.3453 18.6676 14.3305 18.8814C14.3158 19.0952 14.3567 19.3091 14.4494 19.5024V19.5024Z" stroke="#2F80ED" stroke-width="2" stroke-linecap="round" stroke-linejoin="round"/>
</svg>
