<svg width="42" height="42" viewBox="0 0 42 42" fill="none" xmlns="http://www.w3.org/2000/svg">
<path d="M21 35.4375C21 35.4375 4.59375 26.25 4.59375 15.0938C4.59408 13.122 5.27732 11.2111 6.5273 9.68613C7.77728 8.16114 9.51684 7.11613 11.4502 6.72878C13.3836 6.34142 15.3915 6.63563 17.1325 7.56138C18.8735 8.48713 20.2401 9.98728 21 11.8068L21 11.8068C21.7599 9.98729 23.1265 8.48714 24.8675 7.56139C26.6085 6.63563 28.6164 6.34142 30.5498 6.72878C32.4832 7.11613 34.2227 8.16113 35.4727 9.68612C36.7227 11.2111 37.4059 13.122 37.4062 15.0938C37.4063 26.25 21 35.4375 21 35.4375Z" stroke="#2F80ED" stroke-width="2" stroke-linecap="round" stroke-linejoin="round"/>
</svg>
