<svg width="18" height="11" xmlns="http://www.w3.org/2000/svg">

 <g>
  <title>background</title>
  <rect fill="none" id="canvas_background" height="402" width="582" y="-1" x="-1"/>
 </g>
 <g>
  <title>Layer 1</title>
  <path transform="rotate(-180 9.019655227661133,5.441754817962646) " id="svg_1" fill-opacity="0.6" fill="#3C3C43" d="m0.28931,1.68911c0,0.37768 0.13558,0.68758 0.38737,0.93937l7.2535,7.42782c0.32926,0.3293 0.66821,0.4939 1.08463,0.4939c0.41642,0 0.76506,-0.155 1.08459,-0.4939l7.2632,-7.42782c0.2518,-0.26148 0.3874,-0.57137 0.3874,-0.93937c0,-0.74569 -0.6004,-1.3558 -1.3461,-1.3558c-0.368,0 -0.7166,0.15495 -0.9878,0.42611l-6.40129,6.58529l-6.3916,-6.58529c-0.27116,-0.27116 -0.61979,-0.42611 -0.98779,-0.42611c-0.74569,0 -1.34611,0.61011 -1.34611,1.3558z"/>
 </g>
</svg>