<svg width="42" height="42" viewBox="0 0 42 42" fill="none" xmlns="http://www.w3.org/2000/svg">
<path d="M12.6904 33.1204L7.40713 37.5618C7.21581 37.7226 6.98254 37.8254 6.73476 37.8582C6.48698 37.891 6.23498 37.8524 6.00841 37.7469C5.78184 37.6413 5.59011 37.4733 5.45577 37.2625C5.32143 37.0518 5.25006 36.807 5.25006 36.5571V10.5001C5.25006 10.152 5.38834 9.81813 5.63448 9.57198C5.88063 9.32584 6.21446 9.18756 6.56256 9.18756H35.4376C35.7857 9.18756 36.1195 9.32584 36.3656 9.57198C36.6118 9.81813 36.7501 10.152 36.7501 10.5001V31.5001C36.7501 31.8482 36.6118 32.182 36.3656 32.4281C36.1195 32.6743 35.7857 32.8126 35.4376 32.8126H13.535C13.226 32.8126 12.927 32.9216 12.6904 33.1204Z" stroke="#2F80ED" stroke-width="2" stroke-linecap="round" stroke-linejoin="round"/>
<path d="M21 22.9688C22.0873 22.9688 22.9688 22.0873 22.9688 21C22.9688 19.9127 22.0873 19.0312 21 19.0312C19.9127 19.0312 19.0312 19.9127 19.0312 21C19.0312 22.0873 19.9127 22.9688 21 22.9688Z" fill="#2F80ED"/>
<path d="M13.125 22.9688C14.2123 22.9688 15.0938 22.0873 15.0938 21C15.0938 19.9127 14.2123 19.0312 13.125 19.0312C12.0377 19.0312 11.1562 19.9127 11.1562 21C11.1562 22.0873 12.0377 22.9688 13.125 22.9688Z" fill="#2F80ED"/>
<path d="M28.875 22.9688C29.9623 22.9688 30.8438 22.0873 30.8438 21C30.8438 19.9127 29.9623 19.0312 28.875 19.0312C27.7877 19.0312 26.9062 19.9127 26.9062 21C26.9062 22.0873 27.7877 22.9688 28.875 22.9688Z" fill="#2F80ED"/>
</svg>
