<svg width="7" height="10" viewBox="0 0 7 10" fill="none" xmlns="http://www.w3.org/2000/svg">
<path d="M1.10807 9.97754C1.32389 9.97754 1.50097 9.90007 1.64485 9.75619L5.88932 5.61133C6.07747 5.42318 6.17154 5.22949 6.17154 4.99154C6.17154 4.75358 6.083 4.55436 5.88932 4.37175L1.64485 0.221354C1.49544 0.077474 1.31835 0 1.10807 0C0.681961 0 0.333328 0.343099 0.333328 0.769206C0.333328 0.979492 0.42187 1.17871 0.576818 1.33366L4.33984 4.99154L0.576818 8.64388C0.42187 8.79883 0.333328 8.99805 0.333328 9.20833C0.333328 9.63444 0.681961 9.97754 1.10807 9.97754Z" fill="#3C3C43" fill-opacity="0.6"/>
</svg>
