<svg width="18" height="11" viewBox="0 0 18 11" fill="none" xmlns="http://www.w3.org/2000/svg">
<path d="M0.289307 1.68911C0.289307 2.06679 0.424887 2.37669 0.676678 2.62848L7.93018 10.0563C8.25944 10.3856 8.59839 10.5502 9.01481 10.5502C9.43123 10.5502 9.77987 10.3952 10.0994 10.0563L17.3626 2.62848C17.6144 2.367 17.75 2.05711 17.75 1.68911C17.75 0.943421 17.1496 0.333313 16.4039 0.333313C16.0359 0.333313 15.6873 0.488261 15.4161 0.75942L9.01481 7.34471L2.62321 0.75942C2.35205 0.488261 2.00342 0.333313 1.63542 0.333313C0.88973 0.333313 0.289307 0.943421 0.289307 1.68911Z" fill="#3C3C43" fill-opacity="0.6"/>
</svg>
