<svg width="40" height="40" viewBox="0 0 40 40" fill="none" xmlns="http://www.w3.org/2000/svg">
<path d="M20 27.5C24.1421 27.5 27.5 24.1421 27.5 20C27.5 15.8579 24.1421 12.5 20 12.5C15.8579 12.5 12.5 15.8579 12.5 20C12.5 24.1421 15.8579 27.5 20 27.5Z" stroke="#2F80ED" stroke-width="2" stroke-linecap="round" stroke-linejoin="round"/>
<path d="M19.1987 6.89906L16.2503 4.68844C16.0922 4.56944 15.9079 4.48974 15.7129 4.4559C15.5179 4.42206 15.3176 4.43506 15.1285 4.49382C14.2154 4.77976 13.3295 5.1463 12.4813 5.58911C12.3057 5.68121 12.1545 5.81375 12.0402 5.97579C11.926 6.13783 11.8519 6.32472 11.8241 6.52105L11.3028 10.1696C11.1042 10.3457 10.9097 10.5289 10.7193 10.7191C10.5291 10.9094 10.3459 11.104 10.1697 11.3028L10.1696 11.3028L6.52169 11.8245C6.32569 11.8522 6.13907 11.9261 5.97723 12.0401C5.81539 12.1541 5.68295 12.3049 5.59083 12.4801C5.14735 13.328 4.78009 14.2136 4.49341 15.1265C4.43438 15.3158 4.42121 15.5164 4.45498 15.7118C4.48876 15.9072 4.56852 16.0917 4.68767 16.2502L6.89906 19.1987C6.8831 19.4637 6.87508 19.7308 6.87501 19.9999C6.87501 20.2689 6.88303 20.5361 6.89907 20.8012L6.89906 20.8013L4.68844 23.7497C4.56944 23.9079 4.48974 24.0921 4.4559 24.2871C4.42206 24.4821 4.43506 24.6824 4.49382 24.8715C4.77976 25.7846 5.1463 26.6705 5.58911 27.5187C5.68121 27.6943 5.81375 27.8455 5.97579 27.9598C6.13783 28.0741 6.32472 28.1482 6.52105 28.176L10.1696 28.6972C10.3457 28.8958 10.5289 29.0903 10.7191 29.2807C10.9094 29.4709 11.1039 29.6542 11.3028 29.8303L11.3028 29.8304L11.8245 33.4783C11.8522 33.6743 11.9261 33.8609 12.0401 34.0228C12.1541 34.1846 12.3049 34.3171 12.4801 34.4092C13.328 34.8527 14.2136 35.2199 15.1265 35.5066C15.3158 35.5656 15.5164 35.5788 15.7118 35.545C15.9072 35.5113 16.0917 35.4315 16.2502 35.3123L19.1987 33.101C19.4637 33.1169 19.7308 33.1249 19.9998 33.125C20.2689 33.125 20.5361 33.117 20.8012 33.1009L20.8013 33.101L23.7497 35.3116C23.9079 35.4306 24.0921 35.5103 24.2871 35.5441C24.4821 35.578 24.6824 35.565 24.8715 35.5062C25.7846 35.2203 26.6705 34.8537 27.5187 34.4109C27.6943 34.3188 27.8455 34.1863 27.9598 34.0242C28.0741 33.8622 28.1482 33.6753 28.176 33.479L28.6972 29.8304C28.8958 29.6543 29.0903 29.4711 29.2807 29.2809C29.4709 29.0906 29.6542 28.8961 29.8303 28.6972L29.8304 28.6972L33.4783 28.1755C33.6743 28.1478 33.8609 28.0739 34.0228 27.9599C34.1846 27.8459 34.3171 27.6951 34.4092 27.5199C34.8527 26.672 35.2199 25.7864 35.5066 24.8735C35.5656 24.6842 35.5788 24.4836 35.545 24.2882C35.5113 24.0928 35.4315 23.9083 35.3123 23.7498L33.101 20.8013C33.1169 20.5363 33.1249 20.2693 33.125 20.0002C33.125 19.7311 33.117 19.464 33.1009 19.1988L33.101 19.1987L35.3116 16.2503C35.4306 16.0922 35.5103 15.9079 35.5441 15.7129C35.578 15.5179 35.565 15.3176 35.5062 15.1285C35.2203 14.2154 34.8537 13.3295 34.4109 12.4813C34.3188 12.3057 34.1863 12.1545 34.0242 12.0402C33.8622 11.926 33.6753 11.8519 33.479 11.8241L29.8304 11.3028C29.6543 11.1042 29.4711 10.9097 29.2809 10.7193C29.0906 10.5291 28.8961 10.3459 28.6972 10.1697L28.6972 10.1696L28.1755 6.52169C28.1478 6.32569 28.0739 6.13907 27.9599 5.97723C27.8459 5.81539 27.6951 5.68295 27.5199 5.59083C26.672 5.14735 25.7864 4.78009 24.8735 4.49341C24.6842 4.43438 24.4836 4.42121 24.2882 4.45498C24.0928 4.48876 23.9083 4.56852 23.7498 4.68767L20.8013 6.89906C20.5363 6.8831 20.2693 6.87508 20.0002 6.87501C19.7311 6.87501 19.464 6.88303 19.1988 6.89907L19.1987 6.89906Z" stroke="#2F80ED" stroke-width="2" stroke-linecap="round" stroke-linejoin="round"/>
</svg>
